<!-- Generated by IcoMoon.io -->
<svg version="1.1" xmlns="http://www.w3.org/2000/svg" width="32" height="32" viewBox="0 0 32 32">
<title>brand</title>
<path fill="#f7931a" d="M31.52 19.872c-2.136 8.572-10.82 13.788-19.392 11.65-8.568-2.122-13.788-10.822-11.648-19.382 2.136-8.58 10.82-13.8 19.388-11.664 8.574 2.14 13.79 10.82 11.654 19.4zM23.054 13.72c0.32-2.128-1.3-3.274-3.52-4.040l0.72-2.88-1.756-0.44-0.7 2.81c-0.46-0.116-0.94-0.224-1.42-0.332l0.702-2.838-1.76-0.44-0.72 2.886c-0.38-0.090-0.754-0.176-1.12-0.266l-2.42-0.6-0.466 1.876s1.3 0.3 1.274 0.316c0.714 0.18 0.84 0.648 0.82 1.020l-1.97 7.9c-0.1 0.22-0.32 0.54-0.82 0.42 0.020 0.026-1.28-0.32-1.28-0.32l-0.88 2.012 2.28 0.568 1.24 0.324-0.72 2.92 1.76 0.434 0.72-2.886c0.48 0.13 0.94 0.25 1.4 0.364l-0.678 2.872 1.76 0.44 0.726-2.914c2.994 0.566 5.244 0.34 6.192-2.37 0.76-2.18-0.040-3.44-1.62-4.26 1.14-0.26 2-1.016 2.24-2.576zM19.040 19.346c-0.54 2.18-4.212 1-5.4 0.706l0.96-3.866c1.192 0.3 5.008 0.886 4.44 3.16zM19.584 13.686c-0.494 1.986-3.55 0.98-4.54 0.732l0.872-3.52c0.992 0.24 4.184 0.7 3.668 2.78z"></path>
</svg>
