<!-- Generated by IcoMoon.io -->
<svg version="1.1" xmlns="http://www.w3.org/2000/svg" width="32" height="32" viewBox="0 0 32 32">
<title>github-big-logo</title>
<path d="M28.583 13.418c0.119-0.751 0.193-1.575 0.211-2.499-0.007-3.961-1.903-5.363-2.268-6.020 0.537-3.001-0.089-4.367-0.38-4.834-1.074-0.381-3.738 0.984-5.194 1.946-2.373-0.695-7.388-0.627-9.268 0.18-3.47-2.485-5.305-2.106-5.305-2.106s-1.186 2.127-0.314 5.24c-1.142 1.455-1.993 2.483-1.993 5.212 0 0.653 0.041 1.271 0.109 1.865 0.983 5.169 5.079 7.4 9.103 7.784-0.605 0.46-1.332 1.331-1.433 2.34-0.761 0.492-2.291 0.654-3.481 0.28-1.667-0.527-2.306-3.829-4.803-3.358-0.54 0.101-0.433 0.457 0.035 0.761 0.761 0.493 1.477 1.107 2.029 2.419 0.424 1.008 1.316 2.807 4.137 2.807 1.12 0 1.904-0.132 1.904-0.132s0.021 2.568 0.021 3.569c0 1.153-1.555 1.476-1.555 2.029 0 0.22 0.515 0.241 0.929 0.241 0.818 0 2.519-0.681 2.519-1.879 0-0.952 0.015-4.151 0.015-4.711 0-1.224 0.656-1.614 0.656-1.614s0.080 6.534-0.158 7.41c-0.279 1.030-0.785 0.884-0.785 1.342 0 0.684 2.045 0.167 2.724-1.33 0.525-1.17 0.29-7.577 0.29-7.577l0.547-0.012c0 0 0.006 2.935-0.013 4.275-0.020 1.389-0.163 3.144 0.662 3.973 0.541 0.545 2.2 1.501 2.2 0.627 0-0.506-1.161-0.925-1.161-2.297v-6.32c0.706 0 0.851 2.077 0.851 2.077l0.254 3.86c0 0-0.169 1.408 1.521 1.996 0.597 0.209 1.873 0.266 1.933-0.085s-1.537-0.872-1.552-1.962c-0.008-0.664 0.030-1.052 0.030-3.94 0-2.886-0.388-3.954-1.739-4.805 3.918-0.402 7.988-2.152 8.721-6.753z"></path>
</svg>
